<svg width="1920" height="1090" viewBox="0 0 1920 1090" fill="none" xmlns="http://www.w3.org/2000/svg"><path d="M-1186.77 1819.16l101.18 61.48m0 0l104.939-55.7m-104.939 55.7l-.62 51.67m105.559-107.37l100.635 61.15m-100.635-61.15l2.073-120.41m98.562 181.56l-.562 119.13m.562-119.13l109.132-55.35m-109.694 174.48l100.1 60.83m-100.1-60.83l-46.112 24.02m155.806-198.5l97.423 59.2m-97.423-59.2l-2.44-120.22m99.863 179.42l-.467 121.39m.467-121.39l106.875-55.26m-107.342 176.65l-106.55 54.72m106.55-54.72l99.565 60.5m-206.115-5.78l-.612 51.67m-197.488-413.19l-101.172-61.48m101.172 61.48l104.619-55.16m0 0l100.635 61.15m-100.635-61.15l1.747-119.88m98.888 181.03l107.594-58.86m91.367 420.17l-1.633 118.48m1.633-118.48l105.384-57.63m-107.017 176.11l-46.112 24.02m46.112-24.02l99.03 60.18m0 0l-.077 51.99m.077-51.99l106.55-54.73m0 0l.467-121.39m-.467 121.39l100.1 60.83m-99.633-182.22l-99.03-60.17m99.03 60.17l106.875-55.26m-205.905-4.91l1.958-119.02m0 0l-99.565-60.5m99.565 60.5l104.897-56.83 99.029 60.18m-303.491-63.85l.955-122.19m-100.099-60.83l100.099 60.83m-100.099-60.83l.399-118.86m99.7 179.69l106.388-54.46m196.148 240.5l.021 120.58m-.021-120.58l106.713-54.99 100.1 60.82m-206.792 114.75l100.1 60.83m-107.342 176.65l-.898 121.49m.898-121.49l105.469-53.55m-106.367 175.04l-43.903 22.8m43.903-22.8l100.1 60.83m0 0l-.009 49.47m.009-49.47l107.038-55.53m-100.771-180.34l100.1 60.83m-100.1-60.83l1.873-123.1m98.227 183.93l.671 119.51m-.671-119.51l108.664-58.21m-107.993 177.72l98.226 59.69m-197.124-363.13l106.77-55.69m-.078-119.89l.078 119.89m-.078-119.89l105.957-54.35m-105.879 174.24l100.1 60.83m0 0l.02 120.58m-.02-120.58l106.712-54.99M43.917 2205.66l98.708 63.15m7.983-238.72l-.834-119.25m.834 119.25l100.121 58.85M49.675 1850.01l100.099 60.83m-100.1-60.83l2.687-124.43m97.413 185.26l110.213-56.53m-1132.199-324.82l-101.17-61.48m101.17 61.48l106.246-57.84m0 0l100.635 61.15m-100.635-61.15l3.048-122.02m97.587 183.17l110.107-56.96m95.981 182.19l99.564 60.51m-99.564-60.51l4.119-121.36m95.445 181.87l-1.469 118.21m1.469-118.21l106.361-59.24m0 0l99.029 60.17m-99.029-60.17l1.957-119.02m97.072 179.19l-1.443 123m1.443-123l106.55-54.72m0 0l100.1 60.83m-100.1-60.83l3.18-116.81m96.92 177.64l105.957-54.36m101.669 183.09l-1.569-122.26m1.569 122.26l98.739 58.74m-610.087-372.77l-96.352-58.55m96.352 58.55l103.759-54.95m-200.111-3.6l-107.411 54.94m107.411-54.94l-1.769-124.94m-105.642 179.88l-100.1-60.83m0 0l-1.789-121.29m-205.905-4.92l-101.17-61.48m101.17 61.48l105.27-56.23m0 0l100.635 61.15m-100.635-61.15l1.422-119.34m99.213 180.49l107.431-58.59m-206.644-121.9l-101.171-61.48m101.171 61.48l107.872-60.52m0 0l100.635 61.15m-100.635-61.15l.446-117.737m100.189 178.887l-1.863 121.27m1.863-121.27l105.967-56.18m-107.83 177.45l100.1 60.83m0 0l109.724-55.73m92.156 184.27l103.043 62.61m-103.043-62.61l5.535-124.91m97.508 187.52l111.141-59.26m91.736 182.54l100.1 60.83m-100.1-60.83l4.35-124.15m95.75 184.98l111.676-58.94m-918.002-677.307l-101.17-61.478m101.17 61.478l105.92-57.307m100.236 180.014l100.1 60.83m-100.1-60.83l.399-118.861m99.701 179.691l1.894 121.72m-1.894-121.72l108.586-53.86m-106.692 175.58l97.691 59.36m0 0l109.18-54.22m-409.101-367.704l100.635 61.153m-100.635-61.153l.772-118.27m99.863 179.423l109.457-55.891m98.83 181.722l97.691 59.37m-97.691-59.37l1.27-120.89m96.421 180.26l2.487 121.35m-2.487-121.35l105.385-57.63M-32.888 1306.2l100.368 60.99m0 0l-.898 121.49m.898-121.49l106.445-55.16M66.582 1488.68l96.086 58.39m0 0l105.269-56.24m-94.012-178.8l.735-121.22m-.735 121.22l96.085 58.39m-200-243.2l104.65 63.59m-104.65-63.59l1.957-119.02m102.693 182.61l106.607-55.42m-413.063-130.8l-100.1-60.832m100.1 60.832l107.41-54.939m-207.51-5.893l-1.789-121.292m-207.531-2.24l-101.171-61.478m101.171 61.478l106.895-58.912m0 0l100.636 61.152m-100.636-61.152l.772-118.27m99.864 179.422l107.83-53.213m101.47 180.398l96.352 58.549m-96.353-58.549l-4.045-121.198M71.967 1008.2l108.366-52.888m89.677 415.108l-2.073 120.41m2.073-120.41l105.92-57.31m-709.479-670.066l-101.17-61.478m101.17 61.478l105.92-57.306m0 0l100.635 61.152m-100.635-61.152l1.097-118.805m99.538 179.957l1.139 122.363m-1.139-122.363l108.156-53.749m-107.017 176.112l97.424 59.2m0 0l110.737-54.379m0 0l96.353 58.551m-96.353-58.551l-3.72-121.732m100.073 180.283l1.674 122.687m-1.674-122.687l108.691-53.424M180.333 955.312l100.368 60.988m0 0l.566 119.09m-.566-119.09l107.258-56.491M281.267 1135.39l96.085 58.38m0 0l-1.422 119.34m1.422-119.34l104.619-55.16m-94.012-178.801l100.1 60.831m-100.1-60.831l-.241-119.618m100.341 180.449l-6.088 117.97m6.088-117.97l100.929-58.144m-815.52-495.563l106.571-58.378 100.635 61.153.488 123.433m-207.694-126.208l-101.17-61.478m308.864 187.686l97.423 59.201m0 0l110.05-56.263 97.691 59.364 1.024 123.758m0 0l100.368 60.99m0 0l107.908-57.564 100.1 60.827-6.738 119.042M370.094 1673.11l-2.057-121.45m2.057 121.45l96.736 60.07m-98.793-181.52l-100.1-60.83m100.1 60.83l109.399-55.19M375.93 1313.11l100.1 60.83m0 0l1.406 122.53m-1.406-122.53l106.607-55.42m-105.201 177.95l96.394 63.03m-91.859-420.89l100.1 60.82m0 0l.566 119.09m-.566-119.09l109.399-55.19m-108.833 174.28l98.3 63.31m10.533-237.59l97.36 61.23m-97.36-61.23l-2.382-120.92-100.1-60.824M93.868 415.857l-109.131 55.355-100.635-61.153 2.073-120.411M93.868 415.857l97.424 59.2m-97.424-59.2l-2.44-120.222m99.864 179.422l-.467 121.387 99.564 60.502 105.385-57.632M191.292 475.057l106.875-55.26m-411.992-130.149l-101.171-61.478m101.171 61.478l104.618-55.165m0 0l100.635 61.152M-9.207 234.483l1.748-119.876m98.887 181.028l107.594-58.855m295.781 422.711l-.467 121.387 100.1 60.827 105.469-53.549M494.803 659.491l-99.029-60.177m99.029 60.177l106.875-55.26m-205.904-4.917l1.958-119.015m0 0l-99.565-60.502m99.565 60.502l104.896-56.829 99.03 60.177m-303.491-63.85l.955-122.189m-100.1-60.828l100.1 60.828m-100.1-60.828l.399-118.862m99.701 179.69l106.387-54.458m196.149 240.497l.02 120.584m-.02-120.584l106.712-54.993 100.1 60.828M601.678 604.231l100.1 60.827m-1.873 123.098l100.1 60.827m-100.1-60.827l1.873-123.098m98.227 183.925l.672 119.513m-.672-119.513l108.664-58.204M800.677 968.496l-112.698 54.444m112.698-54.444l98.226 59.684M701.778 665.058l106.771-55.691m-.079-119.885l.079 119.885m-.079-119.885l105.957-54.353M808.549 609.367l100.099 60.828m0 0l.021 120.584m-.021-120.584l106.712-54.993M908.669 790.779l97.731 61.092m8.96-236.669l-.83-119.245m.83 119.245l100.61 58.95M914.427 435.129l100.103 60.828m-100.103-60.828l2.686-124.435m97.417 185.263l110.21-56.531M-7.46 114.607l-101.17-61.478m101.17 61.478L98.787 56.765m0 0l100.635 61.153M98.786 56.765l3.049-122.017m97.586 183.17l110.108-56.961m95.98 182.193l99.565 60.502m-99.565-60.502l4.12-121.366m95.445 181.868l-1.47 118.212m1.47-118.212l106.36-59.238m0 0l99.03 60.177m-99.03-60.177l1.958-119.014m97.072 179.191l-1.443 122.993m1.443-122.993l106.549-54.725m0 0l100.1 60.828m-100.1-60.828l3.181-116.805m96.919 177.633l105.957-54.353m101.67 183.085l-1.57-122.257m1.57 122.257l98.28 59.05M613.392 125.4l-96.353-58.55m96.353 58.55L717.15 70.444M517.039 66.85l-107.41 54.935m107.41-54.935L515.27-58.095M409.629 121.784l-100.1-60.827m0 0l-1.79-121.292m-205.904-4.917L.665-126.729m101.17 61.477l105.269-56.236m0 0l100.635 61.153m-100.635-61.153l1.423-119.34m99.212 180.493l107.431-58.587M208.527-240.828l-101.171-61.478m101.171 61.478l107.871-60.518m0 0l100.635 61.152m-100.635-61.152l.446-117.735m100.189 178.887l-1.863 121.272m1.863-121.272L523-296.372m-107.83 177.45l100.1 60.827m0 0l109.725-55.728M717.15 70.444l103.044 62.617M717.15 70.444l5.536-124.903m97.508 187.52l111.141-59.265m91.735 182.545l100.1 60.828m-100.1-60.828l4.35-124.157m95.75 184.985l111.68-58.94m-918.006-677.31l-101.17-61.477m101.17 61.477l105.92-57.306M523-296.372l100.1 60.827M523-296.372l.4-118.863m99.7 179.69l1.895 121.722M623.1-235.545l108.586-53.854M624.995-113.823l97.691 59.364m0 0l109.179-54.227M422.764-476.387L523.4-415.235m-100.636-61.152l.772-118.27M523.4-415.235l109.457-55.89m98.829 181.726l97.691 59.364m-97.691-59.364l1.27-120.899m96.421 180.263l2.488 121.349m-2.488-121.349l105.385-57.632M831.865-108.686l100.367 60.99m0 0l-.897 121.492m.897-121.492l106.448-55.155M931.335 73.796l96.085 58.388m0 0l105.27-56.236m-94.01-178.799l.73-121.224m-.73 121.224l96.08 58.388M934.762-287.667l104.648 63.592m-104.648-63.592l1.958-119.015m102.69 182.607l106.61-55.423m-413.064-130.8l-100.099-60.827m100.099 60.827l107.411-54.935m-207.51-5.892l-1.79-121.292m-207.531-2.24l-101.17-61.478m101.17 61.478l106.896-58.912m0 0l100.635 61.152m-100.635-61.152l.772-118.27m99.863 179.422l107.831-53.214m101.469 180.398l96.353 58.551m-96.353-58.551l-4.046-121.197M936.72-406.682l108.37-52.889m89.67 415.108l-2.07 120.41m2.07-120.41l105.92-57.307M531.204-771.839l-101.171-61.478m101.171 61.478l105.92-57.307m0 0l100.635 61.153m-100.635-61.153l1.097-118.805m99.538 179.958l1.139 122.362m-1.139-122.362l108.156-53.749M738.898-645.631l97.423 59.201m0 0l110.738-54.379m0 0l96.351 58.55m-96.351-58.55l-3.721-121.732m100.072 180.282l1.68 122.688m-1.68-122.688l108.69-53.423m-107.01 176.111l100.36 60.99m0 0l.57 119.083m-.57-119.083l107.26-56.493m-106.69 175.576l96.08 58.388m0 0l-1.42 119.34m1.42-119.34l104.62-55.166m-94.01-178.798l100.1 60.827m-100.1-60.827l-.24-119.618m100.34 180.445l-6.09 117.971m6.09-117.971l100.93-58.14M638.221-947.951l106.57-58.379 100.635 61.155.489 123.433M638.221-947.951L537.05-1009.43m308.865 187.688l97.423 59.201m0 0l110.052-56.263 97.69 59.363 1.02 123.759m0 0l100.37 60.99m0 0l107.91-57.564 100.1 60.827-6.74 119.042m-218.89 710.616l-2.06-121.454m2.06 121.454l102.77 62.454m-104.83-183.908l-100.1-60.828m100.1 60.828l109.4-55.193M1240.68-101.77l100.1 60.827m0 0l1.41 122.525m-1.41-122.525l106.61-55.423m-105.2 177.949l102.78 62.453m-98.25-420.312l100.1 60.828m0 0l.57 119.082m-.57-119.082l109.4-55.193M1447.39-96.366l104.92 63.755m3.91-238.03L1659-208.187m-102.78-62.454l-2.38-120.919-100.1-60.827M243.863 2569.8l-109.131 55.35L34.096 2564l2.073-120.41m207.694 126.21l97.424 59.2m-97.424-59.2l-2.44-120.22M341.287 2629l-.468 121.39 99.565 60.5 105.385-57.63M341.287 2629l106.875-55.26M36.169 2443.59L-65 2382.11m101.17 61.48l104.619-55.17m0 0l100.635 61.16m-100.635-61.16l1.748-119.87 106.245-57.84m-7.358 238.87l107.594-58.86m295.781 422.71l-.467 121.39 100.1 60.83L849.9 2942.1m-205.102-128.67l-99.029-60.17m99.029 60.17l106.875-55.26m-205.904-4.91l1.957-119.02m0 0l-99.564-60.5m99.564 60.5l104.897-56.83 99.029 60.18m-303.49-63.85l.955-122.19m-100.1-60.83l100.1 60.83m-100.1-60.83l.399-118.86m99.701 179.69l106.387-54.46m196.148 240.5l.021 120.58m-.021-120.58l106.713-54.99 100.1 60.82m-206.792 114.75l100.1 60.83m-1.873 123.1l100.1 60.82m-100.1-60.82l1.873-123.1M950 3002.92l.671 119.52M950 3002.92l108.66-58.2m-107.989 177.72l-107.037 55.53m107.037-55.53l98.229 59.69M851.773 2819l106.77-55.69m-.078-119.89l.078 119.89m-.078-119.89l105.955-54.35m-105.877 174.24l100.097 60.83m0 0l.02 120.58m-.02-120.58l106.72-55m-106.7 175.58l98.23 59.69m8.47-235.27l-.84-119.24m.84 119.24l98.22 59.69m-199.16-239.76l100.1 60.83m-100.1-60.83l2.69-124.43m97.41 185.26l110.21-56.53M248.781 2210.71l100.635 61.15m-100.635-61.15l3.049-122.02 105.269-56.24m-7.683 239.41l110.108-56.96m95.98 182.19l99.565 60.5m-99.565-60.5l4.119-121.36m95.446 181.86l-1.47 118.22m1.47-118.22l106.36-59.23m0 0l99.029 60.17m-99.029-60.17l1.958-119.02m97.071 179.19l-1.443 123m1.443-123l106.55-54.72m0 0l100.102 60.83m-100.102-60.83l3.181-116.81m96.921 177.64l105.96-54.36m101.66 183.09l-1.56-122.26m1.56 122.26l102.78 62.45m-614.123-376.48l-96.353-58.55m96.353 58.55l103.758-54.95m-200.111-3.6l-107.411 54.94m107.411-54.94l-1.769-124.94m-105.642 179.88l-100.099-60.83m0 0l-1.79-121.29m-100.635-61.16l100.635 61.16m-100.635-61.16l1.422-119.34m99.213 180.5l107.431-58.59m-206.644-121.91l-101.17-61.47m101.17 61.47l107.872-60.51m0 0l100.635 61.15m-100.635-61.15l.446-117.74 105.92-57.31m-5.731 236.2l-1.863 121.27m1.863-121.27l105.967-56.18m-107.83 177.45l100.1 60.83m0 0l109.725-55.73m92.155 184.27L970.189 2287m-103.044-62.61l5.536-124.91M970.189 2287l111.141-59.26m91.74 182.54l100.1 60.83m-100.1-60.83l4.34-124.15m95.76 184.98l111.67-58.94m-711.845-554.6l100.1 60.83m-100.1-60.83l.399-118.86m99.701 179.69l1.895 121.72m-1.895-121.72l108.586-53.86M774.99 2040.12l97.691 59.36m0 0l109.179-54.22m-409.101-367.71l100.635 61.16m-100.635-61.16l.772-118.27 106.896-58.91m-7.033 238.34l109.457-55.89m98.83 181.72l97.691 59.37m-97.691-59.37l1.27-120.9m96.421 180.27l2.488 121.35m-2.488-121.35l105.388-57.64m-102.9 178.99l100.37 60.99m0 0l-.9 121.49m.9-121.49l106.44-55.16m-107.34 176.65l96.08 58.39m0 0l105.27-56.24m-94.01-178.8l.74-121.22m-.74 121.22l96.09 58.39m-200-243.21l104.65 63.6m-104.65-63.6l1.95-119.01m102.7 182.61l106.6-55.43m-413.059-130.8l-100.1-60.82m100.1 60.82l107.411-54.93m-207.511-5.89l-1.789-121.3m-100.635-61.15l100.635 61.15m-100.635-61.15l.772-118.27 105.92-57.3m-6.057 236.72l107.831-53.21m101.469 180.4l96.348 58.55m-96.348-58.55l-4.046-121.2m100.394 179.75l108.37-52.89m89.68 415.11l-2.08 120.41m2.08-120.41l105.92-57.31M787.119 1324.8l100.635 61.15m-100.635-61.15l1.097-118.81 106.57-58.38 100.635 61.16.488 123.43m-108.155 53.75l1.139 122.36m-1.139-122.36l108.155-53.75m-107.016 176.11l97.423 59.2m0 0l110.734-54.38m0 0l96.36 58.55m-96.36-58.55l-3.72-121.73m100.08 180.28l1.67 122.69m-1.67-122.69l108.69-53.42m-107.02 176.11l100.37 60.99m0 0l.56 119.08m-.56-119.08l107.26-56.49m-106.7 175.57l96.09 58.39m0 0l-1.42 119.34m1.42-119.34l104.62-55.16m-94.01-178.8l100.1 60.82m-100.1-60.82l-.25-119.62m100.35 180.44l-6.09 117.98m6.09-117.98l100.93-58.14M995.909 1332.2l97.421 59.2m0 0l110.05-56.26 97.69 59.36 1.03 123.76m0 0l100.36 60.99m0 0l107.91-57.57 100.1 60.83-6.73 119.04m-218.9 710.62l-2.06-121.45m2.06 121.45l102.78 62.45m-104.84-183.9l-100.1-60.83m100.1 60.83l109.4-55.2m-101.5-183.35l100.1 60.83m0 0l1.4 122.52m-1.4-122.52l106.6-55.42m-105.2 177.94l102.78 62.46m-98.24-420.31l100.1 60.82m0 0l.56 119.09m-.56-119.09l109.4-55.19m-108.84 174.28l104.92 63.75m3.92-238.03l102.77 62.45m-102.77-62.45l-2.38-120.92-100.1-60.83m-495.49-546.56l-109.127 55.36-100.636-61.15 2.073-120.41 104.62-55.169m103.07 181.369l97.43 59.21m-97.43-59.21l-2.44-120.22m99.87 179.43l-.47 121.38 99.57 60.5 105.38-57.63m-204.48-124.25l106.87-55.26m-307.37-185.319l100.63 61.149m-100.63-61.149l1.75-119.876 106.24-57.842m-7.36 238.867l107.6-58.851m295.78 422.711l-.47 121.39 100.1 60.82 105.47-53.55m-205.1-128.66l-99.03-60.18m99.03 60.18l106.87-55.26m-205.9-4.92l1.96-119.01m0 0l-99.57-60.5m99.57 60.5l104.89-56.83 99.03 60.18m-303.49-63.85l.96-122.19m-100.1-60.831l100.1 60.831m-100.1-60.831l.4-118.863m99.7 179.694l106.38-54.461m196.15 240.501l.02 120.58m-.02-120.58l106.72-55 100.1 60.83m-206.8 114.75l100.1 60.83m-1.87 123.09l100.1 60.83m-100.1-60.83l1.87-123.09m98.23 183.92l.67 119.51m-.67-119.51l108.66-58.2m-107.99 177.71l-107.04 55.53m107.04-55.53l98.23 59.69m-197.13-363.12l106.77-55.69m-.07-119.89l.07 119.89m-.07-119.89l105.95-54.35m-105.88 174.24l100.1 60.82m0 0l.02 120.59m-.02-120.59l106.72-54.99m-106.7 175.58l98.23 59.69m8.47-235.27l-.84-119.24m.84 119.24l98.22 59.69m-199.16-239.76l100.1 60.83m-100.1-60.83l2.69-124.44m97.41 185.27l110.22-56.54M1113.17 795.903l100.64 61.153m-100.64-61.153l3.05-122.016 105.27-56.236m-7.68 239.405l110.1-56.961m95.98 182.194l99.57 60.501m-99.57-60.501l4.12-121.366m95.45 181.867l-1.47 118.21m1.47-118.21l106.36-59.237m0 0l99.03 60.177m-99.03-60.177l1.96-119.015m97.07 179.192l-1.44 122.99m1.44-122.99l106.55-54.725m0 0l100.1 60.825m-100.1-60.825l3.18-116.806m96.92 177.631l105.96-54.35m101.67 183.08l-1.57-122.25m1.57 122.25l102.77 62.46m-614.12-376.482l-96.36-58.55m96.36 58.55l103.76-54.956m-200.12-3.594l-107.41 54.935m107.41-54.935l-1.76-124.945m-105.65 179.88l-100.1-60.828m0 0l-1.79-121.292m-100.63-61.152l100.63 61.152m-100.63-61.152l1.42-119.341 107.87-60.518m-8.66 241.011l107.44-58.587m-98.78-182.424l100.64 61.153m-100.64-61.153l.45-117.734 105.92-57.307m-5.73 236.194l-1.86 121.271m1.86-121.271l105.97-56.179m-107.83 177.45l100.1 60.827m0 0l109.72-55.727m92.16 184.266l103.04 62.617m-103.04-62.617l5.53-124.903m97.51 187.52l111.14-59.265m91.74 182.546l100.1 60.83m-100.1-60.83l4.35-124.158m95.75 184.988l111.67-58.942m-711.84-554.602l100.1 60.828m-100.1-60.828l.4-118.862m99.7 179.69l1.89 121.722m-1.89-121.722l108.58-53.855m-106.69 175.577l97.69 59.363m0 0l109.18-54.226m-409.1-367.702l100.64 61.153m-100.64-61.153l.77-118.27m99.87 179.423l109.45-55.891m98.83 181.726l97.69 59.364m-97.69-59.364l1.27-120.898m96.42 180.262l2.49 121.35m-2.49-121.35l105.39-57.632m-102.9 178.982l100.37 60.989m0 0l-.9 121.492m.9-121.492l106.44-55.155m-107.34 176.647l96.09 58.388m0 0l105.27-56.236m-94.02-178.799l.74-121.224m-.74 121.224l96.09 58.388m-200-243.204l104.65 63.592m-104.65-63.592l1.96-119.015m102.69 182.607l106.61-55.423m-413.07-130.799l-100.1-60.828m100.1 60.828l107.41-54.935m-207.51-5.893l-1.79-121.292m-207.53-2.24l-101.17-61.477m101.17 61.477l106.9-58.912m0 0l100.63 61.152m-100.63-61.152l.77-118.27m99.86 179.422l107.83-53.213m101.47 180.398l96.36 58.55m-96.36-58.55l-4.04-121.197m100.4 179.747l108.36-52.888m89.68 415.107l-2.07 120.411m2.07-120.411l105.92-57.307M1545.59-32.701l-101.17-61.478M1545.59-32.7l105.92-57.306m0 0l100.63 61.152m-100.63-61.152l1.1-118.805m99.53 179.957l1.14 122.363m-1.14-122.363l108.16-53.749M1753.28 93.508l97.43 59.201m0 0l110.73-54.38m0 0l96.36 58.551m-96.36-58.55l-3.72-121.733M2057.8 156.88l1.67 122.688m-1.67-122.688l108.69-53.424m-107.02 176.112l100.37 60.99m0 0l.57 119.082m-.57-119.082l107.26-56.494M2160.41 459.64l96.08 58.388m0 0l-1.42 119.34m1.42-119.34l104.62-55.165m-94.01-178.799l100.1 60.827m-100.1-60.827l-.24-119.618m100.34 180.445l-6.09 117.972m6.09-117.972l100.93-58.14m-815.52-495.563l106.57-58.378 100.63 61.153.49 123.433m-207.69-126.208l-101.17-61.478M1860.3-82.604l97.42 59.201m0 0l110.05-56.263 97.69 59.364 1.03 123.758m0 0l100.37 60.99m0 0l107.9-57.564 100.1 60.827-6.73 119.042m-218.9 710.617l-2.05-121.455m2.05 121.455l102.78 62.452m-104.83-183.907l-100.1-60.827m100.1 60.827l109.39-55.192m-101.5-183.353l100.1 60.828m0 0l1.4 122.525m-1.4-122.525l106.61-55.423m-105.21 177.948l102.78 62.454m-98.24-420.312l100.1 60.827m0 0l.57 119.083m-.57-119.083l109.4-55.192m-108.83 174.275l104.91 63.755m3.92-238.03l102.77 62.453m-102.77-62.453l-2.38-120.92-100.1-60.827" stroke="#fff"/></svg>