<svg width="60" height="61" viewBox="0 0 60 61" fill="none" xmlns="http://www.w3.org/2000/svg"><path d="M2.41 25.077A5 5 0 0 1 0 20.8v-9.458a5 5 0 0 1 2.444-4.297l8.175-4.861a5 5 0 0 1 5.15.023l7.96 4.831a5 5 0 0 1 2.405 4.274v9.519a5 5 0 0 1-2.371 4.252l-7.959 4.921a5 5 0 0 1-5.22.024l-8.174-4.95zm33.866.69a5 5 0 0 1-2.41-4.277v-9.458a5 5 0 0 1 2.445-4.298l8.175-4.86a5 5 0 0 1 5.15.023l7.959 4.83A5 5 0 0 1 60 12.003v9.518a5 5 0 0 1-2.37 4.253l-7.96 4.921a5 5 0 0 1-5.22.024l-8.174-4.951zM19.002 54.112a5 5 0 0 1-2.41-4.277v-9.458a5 5 0 0 1 2.445-4.297l8.175-4.862a5 5 0 0 1 5.15.024l7.959 4.83a5 5 0 0 1 2.405 4.275v9.518a5 5 0 0 1-2.37 4.253l-7.96 4.921a5 5 0 0 1-5.22.024l-8.174-4.951z" fill="#000"/></svg>