<svg width="1920" height="1090" viewBox="0 0 1920 1090" fill="none" xmlns="http://www.w3.org/2000/svg">
<path d="M-1186.77 1819.16L-1085.59 1880.64M-1085.59 1880.64L-980.651 1824.94M-1085.59 1880.64L-1086.21 1932.31M-980.651 1824.94L-880.016 1886.09M-980.651 1824.94L-978.578 1704.53M-880.016 1886.09L-880.578 2005.22M-880.016 1886.09L-770.884 1830.74M-880.578 2005.22L-780.478 2066.05M-880.578 2005.22L-926.69 2029.24M-770.884 1830.74L-673.461 1889.94M-770.884 1830.74L-773.324 1710.52M-673.461 1889.94L-673.928 2011.33M-673.461 1889.94L-566.586 1834.68M-673.928 2011.33L-780.478 2066.05M-673.928 2011.33L-574.363 2071.83M-780.478 2066.05L-781.09 2117.72M-978.578 1704.53L-1079.75 1643.05M-978.578 1704.53L-873.959 1649.37M-873.959 1649.37L-773.324 1710.52M-873.959 1649.37L-872.212 1529.49M-773.324 1710.52L-665.73 1651.66M-574.363 2071.83L-575.996 2190.31M-574.363 2071.83L-468.979 2014.2M-575.996 2190.31L-622.108 2214.33M-575.996 2190.31L-476.966 2250.49M-476.966 2250.49L-477.043 2302.48M-476.966 2250.49L-370.416 2195.76M-370.416 2195.76L-369.949 2074.37M-370.416 2195.76L-270.316 2256.59M-369.949 2074.37L-468.979 2014.2M-369.949 2074.37L-263.074 2019.11M-468.979 2014.2L-467.021 1895.18M-467.021 1895.18L-566.586 1834.68M-467.021 1895.18L-362.124 1838.35L-263.095 1898.53M-566.586 1834.68L-565.631 1712.49M-665.73 1651.66L-565.631 1712.49M-665.73 1651.66L-665.331 1532.8M-565.631 1712.49L-459.243 1658.03M-263.095 1898.53L-263.074 2019.11M-263.095 1898.53L-156.382 1843.54L-56.2825 1904.36M-263.074 2019.11L-162.974 2079.94M-270.316 2256.59L-271.214 2378.08M-270.316 2256.59L-164.847 2203.04M-271.214 2378.08L-315.117 2400.88M-271.214 2378.08L-171.114 2438.91M-171.114 2438.91L-171.123 2488.38M-171.114 2438.91L-64.076 2383.38M-164.847 2203.04L-64.7474 2263.87M-164.847 2203.04L-162.974 2079.94M-64.7474 2263.87L-64.076 2383.38M-64.7474 2263.87L43.9168 2205.66M-64.076 2383.38L34.1503 2443.07M-162.974 2079.94L-56.204 2024.25M-56.2825 1904.36L-56.204 2024.25M-56.2825 1904.36L49.6746 1850.01M-56.204 2024.25L43.896 2085.08M43.896 2085.08L43.9168 2205.66M43.896 2085.08L150.608 2030.09M43.9168 2205.66L142.625 2268.81M150.608 2030.09L149.774 1910.84M150.608 2030.09L250.729 2088.94M49.6746 1850.01L149.774 1910.84M49.6746 1850.01L52.3609 1725.58M149.774 1910.84L259.987 1854.31M-872.212 1529.49L-973.382 1468.01M-872.212 1529.49L-765.966 1471.65M-765.966 1471.65L-665.331 1532.8M-765.966 1471.65L-762.918 1349.63M-665.331 1532.8L-555.224 1475.84M-459.243 1658.03L-359.679 1718.54M-459.243 1658.03L-455.124 1536.67M-359.679 1718.54L-361.148 1836.75M-359.679 1718.54L-253.318 1659.3M-253.318 1659.3L-154.289 1719.47M-253.318 1659.3L-251.361 1540.28M-154.289 1719.47L-155.732 1842.47M-154.289 1719.47L-47.739 1664.75M-47.739 1664.75L52.3609 1725.58M-47.739 1664.75L-44.5585 1547.94M52.3609 1725.58L158.318 1671.22M259.987 1854.31L258.418 1732.05M259.987 1854.31L358.726 1913.05M-251.361 1540.28L-347.713 1481.73M-251.361 1540.28L-147.602 1485.33M-347.713 1481.73L-455.124 1536.67M-347.713 1481.73L-349.482 1356.79M-455.124 1536.67L-555.224 1475.84M-555.224 1475.84L-557.013 1354.55M-762.918 1349.63L-864.088 1288.15M-762.918 1349.63L-657.648 1293.4M-657.648 1293.4L-557.013 1354.55M-657.648 1293.4L-656.226 1174.06M-557.013 1354.55L-449.582 1295.96M-656.226 1174.06L-757.397 1112.58M-656.226 1174.06L-548.354 1113.54M-548.354 1113.54L-447.719 1174.69M-548.354 1113.54L-547.908 995.803M-447.719 1174.69L-449.582 1295.96M-447.719 1174.69L-341.752 1118.51M-449.582 1295.96L-349.482 1356.79M-349.482 1356.79L-239.758 1301.06M-147.602 1485.33L-44.5585 1547.94M-147.602 1485.33L-142.067 1360.42M-44.5585 1547.94L66.5825 1488.68M158.318 1671.22L258.418 1732.05M158.318 1671.22L162.668 1547.07M258.418 1732.05L370.094 1673.11M-547.908 995.803L-649.078 934.325M-547.908 995.803L-441.988 938.496M-341.752 1118.51L-241.652 1179.34M-341.752 1118.51L-341.353 999.649M-241.652 1179.34L-239.758 1301.06M-241.652 1179.34L-133.066 1125.48M-239.758 1301.06L-142.067 1360.42M-142.067 1360.42L-32.8876 1306.2M-441.988 938.496L-341.353 999.649M-441.988 938.496L-441.216 820.226M-341.353 999.649L-231.896 943.758M-133.066 1125.48L-35.375 1184.85M-133.066 1125.48L-131.796 1004.59M-35.375 1184.85L-32.8876 1306.2M-35.375 1184.85L70.0096 1127.22M-32.8876 1306.2L67.4799 1367.19M67.4799 1367.19L66.5825 1488.68M67.4799 1367.19L173.925 1312.03M66.5825 1488.68L162.668 1547.07M162.668 1547.07L267.937 1490.83M173.925 1312.03L174.66 1190.81M173.925 1312.03L270.01 1370.42M70.0096 1127.22L174.66 1190.81M70.0096 1127.22L71.9672 1008.2M174.66 1190.81L281.267 1135.39M-131.796 1004.59L-231.896 943.758M-131.796 1004.59L-24.3856 949.651M-231.896 943.758L-233.685 822.466M-441.216 820.226L-542.387 758.748M-441.216 820.226L-334.321 761.314M-334.321 761.314L-233.685 822.466M-334.321 761.314L-333.549 643.044M-233.685 822.466L-125.855 769.253M-24.3856 949.651L71.9672 1008.2M-24.3856 949.651L-28.4314 828.453M71.9672 1008.2L180.333 955.312M270.01 1370.42L267.937 1490.83M270.01 1370.42L375.93 1313.11M-333.549 643.044L-434.719 581.566M-333.549 643.044L-227.629 585.738M-227.629 585.738L-126.994 646.89M-227.629 585.738L-226.532 466.933M-126.994 646.89L-125.855 769.253M-126.994 646.89L-18.8379 593.141M-125.855 769.253L-28.4314 828.453M-28.4314 828.453L82.306 774.074M82.306 774.074L178.659 832.625M82.306 774.074L78.5855 652.342M178.659 832.625L180.333 955.312M178.659 832.625L287.35 779.201M180.333 955.312L280.701 1016.3M280.701 1016.3L281.267 1135.39M280.701 1016.3L387.959 959.809M281.267 1135.39L377.352 1193.77M377.352 1193.77L375.93 1313.11M377.352 1193.77L481.971 1138.61M387.959 959.809L488.059 1020.64M387.959 959.809L387.718 840.191M488.059 1020.64L481.971 1138.61M488.059 1020.64L588.988 962.496M-226.532 466.933L-119.961 408.555L-19.3263 469.708L-18.8379 593.141M-226.532 466.933L-327.702 405.455M-18.8379 593.141L78.5855 652.342M78.5855 652.342L188.635 596.079L286.326 655.443L287.35 779.201M287.35 779.201L387.718 840.191M387.718 840.191L495.626 782.627L595.726 843.454L588.988 962.496M370.094 1673.11L368.037 1551.66M370.094 1673.11L466.83 1733.18M368.037 1551.66L267.937 1490.83M368.037 1551.66L477.436 1496.47M375.93 1313.11L476.03 1373.94M476.03 1373.94L477.436 1496.47M476.03 1373.94L582.637 1318.52M477.436 1496.47L573.83 1559.5M481.971 1138.61L582.071 1199.43M582.071 1199.43L582.637 1318.52M582.071 1199.43L691.47 1144.24M582.637 1318.52L680.937 1381.83M691.47 1144.24L788.83 1205.47M691.47 1144.24L689.088 1023.32L588.988 962.496M93.8684 415.857L-15.2633 471.212L-115.898 410.059L-113.825 289.648M93.8684 415.857L191.292 475.057M93.8684 415.857L91.4284 295.635M191.292 475.057L190.825 596.444L290.389 656.946L395.774 599.314M191.292 475.057L298.167 419.797M-113.825 289.648L-214.996 228.17M-113.825 289.648L-9.20685 234.483M-9.20685 234.483L91.4284 295.635M-9.20685 234.483L-7.45914 114.607M91.4284 295.635L199.022 236.78M494.803 659.491L494.336 780.878L594.436 841.705L699.905 788.156M494.803 659.491L395.774 599.314M494.803 659.491L601.678 604.231M395.774 599.314L397.732 480.299M397.732 480.299L298.167 419.797M397.732 480.299L502.628 423.47L601.658 483.647M298.167 419.797L299.122 297.608M199.022 236.78L299.122 297.608M199.022 236.78L199.421 117.918M299.122 297.608L405.509 243.15M601.658 483.647L601.678 604.231M601.658 483.647L708.37 428.654L808.47 489.482M601.678 604.231L701.778 665.058M699.905 788.156L800.005 848.983M699.905 788.156L701.778 665.058M800.005 848.983L800.677 968.496M800.005 848.983L908.669 790.779M800.677 968.496L687.979 1022.94M800.677 968.496L898.903 1028.18M701.778 665.058L808.549 609.367M808.47 489.482L808.549 609.367M808.47 489.482L914.427 435.129M808.549 609.367L908.648 670.195M908.648 670.195L908.669 790.779M908.648 670.195L1015.36 615.202M908.669 790.779L1006.4 851.871M1015.36 615.202L1014.53 495.957M1015.36 615.202L1115.97 674.152M914.427 435.129L1014.53 495.957M914.427 435.129L917.113 310.694M1014.53 495.957L1124.74 439.426M-7.45914 114.607L-108.63 53.1293M-7.45914 114.607L98.786 56.7652M98.786 56.7652L199.421 117.918M98.786 56.7652L101.835 -65.2516M199.421 117.918L309.529 60.9568M405.509 243.15L505.074 303.652M405.509 243.15L409.629 121.784M505.074 303.652L503.604 421.864M505.074 303.652L611.434 244.414M611.434 244.414L710.464 304.591M611.434 244.414L613.392 125.4M710.464 304.591L709.021 427.584M710.464 304.591L817.013 249.866M817.013 249.866L917.113 310.694M817.013 249.866L820.194 133.061M917.113 310.694L1023.07 256.341M1124.74 439.426L1123.17 317.169M1124.74 439.426L1223.02 498.476M613.392 125.4L517.039 66.8492M613.392 125.4L717.15 70.4442M517.039 66.8492L409.629 121.784M517.039 66.8492L515.27 -58.095M409.629 121.784L309.529 60.9568M309.529 60.9568L307.739 -60.335M101.835 -65.2516L0.664329 -126.729M101.835 -65.2516L207.104 -121.488M207.104 -121.488L307.739 -60.335M207.104 -121.488L208.527 -240.828M307.739 -60.335L415.17 -118.922M208.527 -240.828L107.356 -302.306M208.527 -240.828L316.398 -301.346M316.398 -301.346L417.033 -240.194M316.398 -301.346L316.844 -419.081M417.033 -240.194L415.17 -118.922M417.033 -240.194L523 -296.372M415.17 -118.922L515.27 -58.095M515.27 -58.095L624.995 -113.823M717.15 70.4442L820.194 133.061M717.15 70.4442L722.686 -54.459M820.194 133.061L931.335 73.7959M1023.07 256.341L1123.17 317.169M1023.07 256.341L1027.42 132.184M1123.17 317.169L1234.85 258.229M316.844 -419.081L215.674 -480.558M316.844 -419.081L422.764 -476.387M523 -296.372L623.1 -235.545M523 -296.372L523.4 -415.235M623.1 -235.545L624.995 -113.823M623.1 -235.545L731.686 -289.399M624.995 -113.823L722.686 -54.459M722.686 -54.459L831.865 -108.686M422.764 -476.387L523.4 -415.235M422.764 -476.387L423.536 -594.657M523.4 -415.235L632.857 -471.125M731.686 -289.399L829.377 -230.035M731.686 -289.399L732.956 -410.298M829.377 -230.035L831.865 -108.686M829.377 -230.035L934.762 -287.667M831.865 -108.686L932.232 -47.6958M932.232 -47.6958L931.335 73.7959M932.232 -47.6958L1038.68 -102.851M931.335 73.7959L1027.42 132.184M1027.42 132.184L1132.69 75.9475M1038.68 -102.851L1039.41 -224.075M1038.68 -102.851L1134.76 -44.4633M934.762 -287.667L1039.41 -224.075M934.762 -287.667L936.72 -406.682M1039.41 -224.075L1146.02 -279.498M732.956 -410.298L632.857 -471.125M732.956 -410.298L840.367 -465.233M632.857 -471.125L631.067 -592.417M423.536 -594.657L322.366 -656.135M423.536 -594.657L530.432 -653.569M530.432 -653.569L631.067 -592.417M530.432 -653.569L531.204 -771.839M631.067 -592.417L738.898 -645.631M840.367 -465.233L936.72 -406.682M840.367 -465.233L836.321 -586.43M936.72 -406.682L1045.09 -459.571M1134.76 -44.4633L1132.69 75.9475M1134.76 -44.4633L1240.68 -101.77M531.204 -771.839L430.033 -833.317M531.204 -771.839L637.124 -829.146M637.124 -829.146L737.759 -767.993M637.124 -829.146L638.221 -947.951M737.759 -767.993L738.898 -645.631M737.759 -767.993L845.915 -821.742M738.898 -645.631L836.321 -586.43M836.321 -586.43L947.059 -640.809M947.059 -640.809L1043.41 -582.259M947.059 -640.809L943.338 -762.541M1043.41 -582.259L1045.09 -459.571M1043.41 -582.259L1152.1 -635.682M1045.09 -459.571L1145.45 -398.581M1145.45 -398.581L1146.02 -279.498M1145.45 -398.581L1252.71 -455.074M1146.02 -279.498L1242.1 -221.11M1242.1 -221.11L1240.68 -101.77M1242.1 -221.11L1346.72 -276.276M1252.71 -455.074L1352.81 -394.247M1252.71 -455.074L1252.47 -574.692M1352.81 -394.247L1346.72 -276.276M1352.81 -394.247L1453.74 -452.387M638.221 -947.951L744.791 -1006.33L845.426 -945.175L845.915 -821.742M638.221 -947.951L537.05 -1009.43M845.915 -821.742L943.338 -762.541M943.338 -762.541L1053.39 -818.804L1151.08 -759.441L1152.1 -635.682M1152.1 -635.682L1252.47 -574.692M1252.47 -574.692L1360.38 -632.256L1460.48 -571.429L1453.74 -452.387M1234.85 258.229L1232.79 136.775M1234.85 258.229L1337.62 320.683M1232.79 136.775L1132.69 75.9475M1232.79 136.775L1342.19 81.5825M1240.68 -101.77L1340.78 -40.9427M1340.78 -40.9427L1342.19 81.5825M1340.78 -40.9427L1447.39 -96.3656M1342.19 81.5825L1444.97 144.036M1346.72 -276.276L1446.82 -215.448M1446.82 -215.448L1447.39 -96.3656M1446.82 -215.448L1556.22 -270.641M1447.39 -96.3656L1552.31 -32.6108M1556.22 -270.641L1659 -208.187M1556.22 -270.641L1553.84 -391.56L1453.74 -452.387M243.863 2569.8L134.732 2625.15L34.0963 2564L36.1693 2443.59M243.863 2569.8L341.287 2629M243.863 2569.8L241.423 2449.58M341.287 2629L340.819 2750.39L440.384 2810.89L545.769 2753.26M341.287 2629L448.162 2573.74M36.1693 2443.59L-65.0012 2382.11M36.1693 2443.59L140.788 2388.42M140.788 2388.42L241.423 2449.58M140.788 2388.42L142.536 2268.55L248.781 2210.71M241.423 2449.58L349.017 2390.72M644.798 2813.43L644.331 2934.82L744.431 2995.65L849.9 2942.1M644.798 2813.43L545.769 2753.26M644.798 2813.43L751.673 2758.17M545.769 2753.26L547.726 2634.24M547.726 2634.24L448.162 2573.74M547.726 2634.24L652.623 2577.41L751.652 2637.59M448.162 2573.74L449.117 2451.55M349.017 2390.72L449.117 2451.55M349.017 2390.72L349.416 2271.86M449.117 2451.55L555.504 2397.09M751.652 2637.59L751.673 2758.17M751.652 2637.59L858.365 2582.6L958.465 2643.42M751.673 2758.17L851.773 2819M849.9 2942.1L950 3002.92M849.9 2942.1L851.773 2819M950 3002.92L950.671 3122.44M950 3002.92L1058.66 2944.72M950.671 3122.44L843.634 3177.97M950.671 3122.44L1048.9 3182.13M851.773 2819L958.543 2763.31M958.465 2643.42L958.543 2763.31M958.465 2643.42L1064.42 2589.07M958.543 2763.31L1058.64 2824.14M1058.64 2824.14L1058.66 2944.72M1058.64 2824.14L1165.36 2769.14M1058.66 2944.72L1156.89 3004.41M1165.36 2769.14L1164.52 2649.9M1165.36 2769.14L1263.58 2828.83M1064.42 2589.07L1164.52 2649.9M1064.42 2589.07L1067.11 2464.64M1164.52 2649.9L1274.73 2593.37M248.781 2210.71L349.416 2271.86M248.781 2210.71L251.83 2088.69L357.099 2032.45M349.416 2271.86L459.524 2214.9M555.504 2397.09L655.069 2457.59M555.504 2397.09L559.623 2275.73M655.069 2457.59L653.599 2575.81M655.069 2457.59L761.429 2398.36M761.429 2398.36L860.458 2458.53M761.429 2398.36L763.387 2279.34M860.458 2458.53L859.015 2581.53M860.458 2458.53L967.008 2403.81M967.008 2403.81L1067.11 2464.64M967.008 2403.81L970.189 2287M1067.11 2464.64L1173.07 2410.28M1274.73 2593.37L1273.17 2471.11M1274.73 2593.37L1377.51 2655.82M763.387 2279.34L667.034 2220.79M763.387 2279.34L867.145 2224.39M667.034 2220.79L559.623 2275.73M667.034 2220.79L665.265 2095.85M559.623 2275.73L459.524 2214.9M459.524 2214.9L457.734 2093.61M357.099 2032.45L457.734 2093.61M357.099 2032.45L358.521 1913.11M457.734 2093.61L565.165 2035.02M358.521 1913.11L257.351 1851.64M358.521 1913.11L466.393 1852.6M466.393 1852.6L567.028 1913.75M466.393 1852.6L466.839 1734.86L572.759 1677.55M567.028 1913.75L565.165 2035.02M567.028 1913.75L672.995 1857.57M565.165 2035.02L665.265 2095.85M665.265 2095.85L774.99 2040.12M867.145 2224.39L970.189 2287M867.145 2224.39L872.681 2099.48M970.189 2287L1081.33 2227.74M1173.07 2410.28L1273.17 2471.11M1173.07 2410.28L1177.41 2286.13M1273.17 2471.11L1384.84 2412.17M672.995 1857.57L773.095 1918.4M672.995 1857.57L673.394 1738.71M773.095 1918.4L774.99 2040.12M773.095 1918.4L881.681 1864.54M774.99 2040.12L872.681 2099.48M872.681 2099.48L981.86 2045.26M572.759 1677.55L673.394 1738.71M572.759 1677.55L573.531 1559.28L680.427 1500.37M673.394 1738.71L782.851 1682.82M881.681 1864.54L979.372 1923.91M881.681 1864.54L882.951 1743.64M979.372 1923.91L981.86 2045.26M979.372 1923.91L1084.76 1866.27M981.86 2045.26L1082.23 2106.25M1082.23 2106.25L1081.33 2227.74M1082.23 2106.25L1188.67 2051.09M1081.33 2227.74L1177.41 2286.13M1177.41 2286.13L1282.68 2229.89M1188.67 2051.09L1189.41 1929.87M1188.67 2051.09L1284.76 2109.48M1084.76 1866.27L1189.41 1929.87M1084.76 1866.27L1086.71 1747.26M1189.41 1929.87L1296.01 1874.44M882.951 1743.64L782.851 1682.82M882.951 1743.64L990.362 1688.71M782.851 1682.82L781.062 1561.52M680.427 1500.37L781.062 1561.52M680.427 1500.37L681.199 1382.1L787.119 1324.8M781.062 1561.52L888.893 1508.31M990.362 1688.71L1086.71 1747.26M990.362 1688.71L986.316 1567.51M1086.71 1747.26L1195.08 1694.37M1284.76 2109.48L1282.68 2229.89M1284.76 2109.48L1390.68 2052.17M787.119 1324.8L887.754 1385.95M787.119 1324.8L788.216 1205.99L894.786 1147.61L995.421 1208.77L995.909 1332.2M887.754 1385.95L888.893 1508.31M887.754 1385.95L995.909 1332.2M888.893 1508.31L986.316 1567.51M986.316 1567.51L1097.05 1513.13M1097.05 1513.13L1193.41 1571.68M1097.05 1513.13L1093.33 1391.4M1193.41 1571.68L1195.08 1694.37M1193.41 1571.68L1302.1 1518.26M1195.08 1694.37L1295.45 1755.36M1295.45 1755.36L1296.01 1874.44M1295.45 1755.36L1402.71 1698.87M1296.01 1874.44L1392.1 1932.83M1392.1 1932.83L1390.68 2052.17M1392.1 1932.83L1496.72 1877.67M1402.71 1698.87L1502.81 1759.69M1402.71 1698.87L1402.46 1579.25M1502.81 1759.69L1496.72 1877.67M1502.81 1759.69L1603.74 1701.55M995.909 1332.2L1093.33 1391.4M1093.33 1391.4L1203.38 1335.14L1301.07 1394.5L1302.1 1518.26M1302.1 1518.26L1402.46 1579.25M1402.46 1579.25L1510.37 1521.68L1610.47 1582.51L1603.74 1701.55M1384.84 2412.17L1382.78 2290.72M1384.84 2412.17L1487.62 2474.62M1382.78 2290.72L1282.68 2229.89M1382.78 2290.72L1492.18 2235.52M1390.68 2052.17L1490.78 2113M1490.78 2113L1492.18 2235.52M1490.78 2113L1597.38 2057.58M1492.18 2235.52L1594.96 2297.98M1496.72 1877.67L1596.82 1938.49M1596.82 1938.49L1597.38 2057.58M1596.82 1938.49L1706.22 1883.3M1597.38 2057.58L1702.3 2121.33M1706.22 1883.3L1808.99 1945.75M1706.22 1883.3L1703.84 1762.38L1603.74 1701.55M1108.25 1154.99L999.123 1210.35L898.487 1149.2L900.56 1028.79L1005.18 973.621M1108.25 1154.99L1205.68 1214.2M1108.25 1154.99L1105.81 1034.77M1205.68 1214.2L1205.21 1335.58L1304.78 1396.08L1410.16 1338.45M1205.68 1214.2L1312.55 1158.94M1005.18 973.621L1105.81 1034.77M1005.18 973.621L1006.93 853.745L1113.17 795.903M1105.81 1034.77L1213.41 975.919M1509.19 1398.63L1508.72 1520.02L1608.82 1580.84L1714.29 1527.29M1509.19 1398.63L1410.16 1338.45M1509.19 1398.63L1616.06 1343.37M1410.16 1338.45L1412.12 1219.44M1412.12 1219.44L1312.55 1158.94M1412.12 1219.44L1517.01 1162.61L1616.04 1222.79M1312.55 1158.94L1313.51 1036.75M1213.41 975.919L1313.51 1036.75M1213.41 975.919L1213.81 857.056M1313.51 1036.75L1419.89 982.289M1616.04 1222.79L1616.06 1343.37M1616.04 1222.79L1722.76 1167.79L1822.86 1228.62M1616.06 1343.37L1716.16 1404.2M1714.29 1527.29L1814.39 1588.12M1714.29 1527.29L1716.16 1404.2M1814.39 1588.12L1815.06 1707.63M1814.39 1588.12L1923.05 1529.92M1815.06 1707.63L1708.02 1763.16M1815.06 1707.63L1913.29 1767.32M1716.16 1404.2L1822.93 1348.51M1822.86 1228.62L1822.93 1348.51M1822.86 1228.62L1928.81 1174.27M1822.93 1348.51L1923.03 1409.33M1923.03 1409.33L1923.05 1529.92M1923.03 1409.33L2029.75 1354.34M1923.05 1529.92L2021.28 1589.61M2029.75 1354.34L2028.91 1235.1M2029.75 1354.34L2127.97 1414.03M1928.81 1174.27L2028.91 1235.1M1928.81 1174.27L1931.5 1049.83M2028.91 1235.1L2139.13 1178.56M1113.17 795.903L1213.81 857.056M1113.17 795.903L1116.22 673.887L1221.49 617.651M1213.81 857.056L1323.91 800.095M1419.89 982.289L1519.46 1042.79M1419.89 982.289L1424.01 860.923M1519.46 1042.79L1517.99 1161M1519.46 1042.79L1625.82 983.553M1625.82 983.553L1724.85 1043.73M1625.82 983.553L1627.78 864.538M1724.85 1043.73L1723.41 1166.72M1724.85 1043.73L1831.4 989.005M1831.4 989.005L1931.5 1049.83M1831.4 989.005L1834.58 872.199M1931.5 1049.83L2037.46 995.48M2139.13 1178.56L2137.56 1056.31M2139.13 1178.56L2241.9 1241.02M1627.78 864.538L1531.42 805.988M1627.78 864.538L1731.54 809.582M1531.42 805.988L1424.01 860.923M1531.42 805.988L1529.66 681.043M1424.01 860.923L1323.91 800.095M1323.91 800.095L1322.12 678.803M1221.49 617.651L1322.12 678.803M1221.49 617.651L1222.91 498.31L1330.78 437.792M1322.12 678.803L1429.56 620.216M1330.78 437.792L1431.42 498.945M1330.78 437.792L1331.23 320.058L1437.15 262.751M1431.42 498.945L1429.56 620.216M1431.42 498.945L1537.39 442.766M1429.56 620.216L1529.66 681.043M1529.66 681.043L1639.38 625.316M1731.54 809.582L1834.58 872.199M1731.54 809.582L1737.07 684.679M1834.58 872.199L1945.72 812.934M2037.46 995.48L2137.56 1056.31M2037.46 995.48L2041.81 871.322M2137.56 1056.31L2249.23 997.368M1537.39 442.766L1637.49 503.594M1537.39 442.766L1537.79 323.904M1637.49 503.594L1639.38 625.316M1637.49 503.594L1746.07 449.739M1639.38 625.316L1737.07 684.679M1737.07 684.679L1846.25 630.453M1437.15 262.751L1537.79 323.904M1437.15 262.751L1437.92 144.481M1537.79 323.904L1647.24 268.013M1746.07 449.739L1843.76 509.103M1746.07 449.739L1747.34 328.841M1843.76 509.103L1846.25 630.453M1843.76 509.103L1949.15 451.471M1846.25 630.453L1946.62 691.442M1946.62 691.442L1945.72 812.934M1946.62 691.442L2053.06 636.287M1945.72 812.934L2041.81 871.322M2041.81 871.322L2147.08 815.086M2053.06 636.287L2053.8 515.063M2053.06 636.287L2149.15 694.675M1949.15 451.471L2053.8 515.063M1949.15 451.471L1951.11 332.456M2053.8 515.063L2160.41 459.64M1747.34 328.841L1647.24 268.013M1747.34 328.841L1854.75 273.906M1647.24 268.013L1645.45 146.721M1437.92 144.481L1336.75 83.0036M1437.92 144.481L1544.82 85.5689M1544.82 85.5689L1645.45 146.721M1544.82 85.5689L1545.59 -32.7007M1645.45 146.721L1753.28 93.5077M1854.75 273.906L1951.11 332.456M1854.75 273.906L1850.71 152.709M1951.11 332.456L2059.47 279.568M2149.15 694.675L2147.08 815.086M2149.15 694.675L2255.07 637.368M1545.59 -32.7007L1444.42 -94.1786M1545.59 -32.7007L1651.51 -90.0074M1651.51 -90.0074L1752.14 -28.8549M1651.51 -90.0074L1652.61 -208.812M1752.14 -28.8549L1753.28 93.5077M1752.14 -28.8549L1860.3 -82.6039M1753.28 93.5077L1850.71 152.709M1850.71 152.709L1961.44 98.3294M1961.44 98.3294L2057.8 156.88M1961.44 98.3294L1957.72 -23.403M2057.8 156.88L2059.47 279.568M2057.8 156.88L2166.49 103.456M2059.47 279.568L2159.84 340.558M2159.84 340.558L2160.41 459.64M2159.84 340.558L2267.1 284.064M2160.41 459.64L2256.49 518.028M2256.49 518.028L2255.07 637.368M2256.49 518.028L2361.11 462.863M2267.1 284.064L2367.2 344.891M2267.1 284.064L2266.86 164.446M2367.2 344.891L2361.11 462.863M2367.2 344.891L2468.13 286.751M1652.61 -208.812L1759.18 -267.19L1859.81 -206.037L1860.3 -82.6039M1652.61 -208.812L1551.44 -270.29M1860.3 -82.6039L1957.72 -23.403M1957.72 -23.403L2067.77 -79.666L2165.46 -20.3025L2166.49 103.456M2166.49 103.456L2266.86 164.446M2266.86 164.446L2374.76 106.882L2474.86 167.709L2468.13 286.751M2249.23 997.368L2247.18 875.913M2249.23 997.368L2352.01 1059.82M2247.18 875.913L2147.08 815.086M2247.18 875.913L2356.57 820.721M2255.07 637.368L2355.17 698.196M2355.17 698.196L2356.57 820.721M2355.17 698.196L2461.78 642.773M2356.57 820.721L2459.35 883.175M2361.11 462.863L2461.21 523.69M2461.21 523.69L2461.78 642.773M2461.21 523.69L2570.61 468.498M2461.78 642.773L2566.69 706.528M2570.61 468.498L2673.38 530.951M2570.61 468.498L2568.23 347.578L2468.13 286.751" stroke="white"/>
</svg>
