<svg width="60" height="61" viewBox="0 0 60 61" fill="#000" xmlns="http://www.w3.org/2000/svg">
    <path d="M2.40972 25.0772C0.913798 24.1711 0 22.5493 0 20.8004V11.3424C0 9.57907 0.928818 7.94611 2.44443 7.04484L10.6194 2.18355C12.2084 1.23862 14.1892 1.24763 15.7696 2.20699L23.7282 7.03824C25.2217 7.94485 26.1336 9.56525 26.1336 11.3124V20.8306C26.1336 22.5631 25.2367 24.1722 23.763 25.0834L15.804 30.0043C14.2067 30.9919 12.1907 31.0012 10.5843 30.0283L2.40972 25.0772Z" fill="white"/>
    <path d="M36.2761 25.7668C34.7802 24.8608 33.8664 23.239 33.8664 21.4901V12.0321C33.8664 10.2687 34.7952 8.63577 36.3108 7.7345L44.4858 2.8732C46.0748 1.92827 48.0556 1.93729 49.6359 2.89664L57.5946 7.7279C59.0881 8.63451 60 10.2549 60 12.002V21.5202C60 23.2528 59.1031 24.8619 57.6294 25.773L49.6704 30.694C48.0731 31.6816 46.057 31.6908 44.4507 30.7179L36.2761 25.7668Z" fill="white"/>
    <path d="M19.0022 54.1118C17.5063 53.2058 16.5925 51.584 16.5925 49.8351V40.3771C16.5925 38.6137 17.5213 36.9808 19.0369 36.0795L27.2119 31.2182C28.8009 30.2733 30.7817 30.2823 32.3621 31.2416L40.3207 36.0729C41.8142 36.9795 42.7261 38.5999 42.7261 40.347V49.8652C42.7261 51.5978 41.8292 53.2069 40.3556 54.118L32.3965 59.039C30.7992 60.0266 28.7832 60.0358 27.1768 59.0629L19.0022 54.1118Z" fill="white"/>
</svg>
